<svg id="Capa_1" enable-background="new 0 0 497 497" height="512" viewBox="0 0 497 497" width="512" xmlns="http://www.w3.org/2000/svg"><g><path d="m497 165.605v130c0 14.64-11.86 26.5-26.5 26.5h-444c-14.64 0-26.5-11.86-26.5-26.5v-130c0-14.64 11.86-26.5 26.5-26.5h444c14.64 0 26.5 11.86 26.5 26.5z" fill="#fad207"/><path d="m457 189.105v83c0 5.52-4.48 10-10 10h-397c-5.52 0-10-4.48-10-10v-83c0-5.52 4.48-10 10-10h397c5.52 0 10 4.48 10 10z" fill="#f5f5f5"/><path d="m96 259.605c-4.143 0-7.5-3.357-7.5-7.5v-43c0-4.143 3.357-7.5 7.5-7.5s7.5 3.357 7.5 7.5v43c0 4.142-3.357 7.5-7.5 7.5z" fill="#50758d"/><path d="m412.06 179.105-120.22 10-123.421-10c6.38-15.08 15.4-28.57 26.4-40h190.81c11.081 11.53 20.091 25.07 26.431 40z" fill="#faa515"/><path d="m412.11 282.105c-6.32 14.92-15.32 28.46-26.38 40h-190.95c-11.06-11.54-20.05-25.08-26.38-40l121.84-10z" fill="#faa515"/><path d="m422.52 230.665c0 18.23-3.71 35.62-10.41 51.44h-243.71c-6.7-15.82-10.41-33.21-10.41-51.44 0-15.06 2.52-29.85 7.48-43.94.91-2.58 1.89-5.12 2.95-7.62h243.64c6.73 15.85 10.46 33.28 10.46 51.56z" fill="#e6e6e6"/><g><path d="m430.63 350.875-30.62-31.13-22.04-22.42-23.66 21.24 23.07 23.81 30.51 31.49c3.17 3.16 7.31 4.74 11.45 4.74s8.28-1.58 11.43-4.73c6.36-6.36 6.29-16.69-.14-23z" fill="#50758d"/><path d="m400.01 319.745-22.63 22.63-23.07-23.81 23.66-21.24z" fill="#2b597f"/><path d="m177.993 230.661c0-13.074 2.235-25.627 6.344-37.296 15.376-43.669 56.993-74.97 105.922-74.97 62.002 0 112.265 50.263 112.265 112.265s-50.264 112.266-112.266 112.266-112.265-50.263-112.265-112.265z" fill="#50758d"/><circle cx="290.258" cy="230.661" fill="#2edffc" r="79.816"/><path d="m360.84 267.944c-13.38 25.3-39.97 42.53-70.58 42.53-44.08 0-79.82-35.73-79.82-79.81 0-22.47 9.28-42.77 24.23-57.27-5.9 11.12-9.23 23.81-9.23 37.27 0 44.08 35.74 79.81 79.82 79.81 21.61.001 41.21-8.579 55.58-22.53z" fill="#27bdf3"/></g></g></svg>